<?xml version="1.0" standalone="no"?>
<!DOCTYPE svg PUBLIC "-//W3C//DTD SVG 20010904//EN"
 "http://www.w3.org/TR/2001/REC-SVG-20010904/DTD/svg10.dtd">
<svg version="1.0" xmlns="http://www.w3.org/2000/svg"
 width="512.000000pt" height="512.000000pt" viewBox="0 0 512.000000 512.000000"
 preserveAspectRatio="xMidYMid meet">
<metadata>
Created by potrace 1.11, written by Peter Selinger 2001-2013
</metadata>
<g transform="translate(0.000000,512.000000) scale(0.100000,-0.100000)"
fill="#000000" stroke="none">
<path d="M0 2560 l0 -2560 2560 0 2560 0 0 2560 0 2560 -2560 0 -2560 0 0
-2560z m2015 1202 c280 -62 441 -188 516 -405 15 -43 29 -81 32 -83 2 -3 8 12
12 33 30 160 179 324 360 394 160 63 239 73 540 73 246 -1 473 -17 548 -40 16
-5 17 -71 17 -1200 l0 -1194 -155 0 -155 0 0 525 0 525 -172 0 c-254 0 -356
-28 -449 -120 -79 -79 -111 -160 -198 -510 -43 -173 -88 -337 -99 -365 l-20
-50 -232 0 -233 0 -24 63 c-13 35 -50 175 -83 310 -92 381 -121 460 -200 546
-91 98 -189 126 -447 126 l-183 0 0 -525 0 -525 -155 0 -155 0 0 1199 c0 1016
2 1200 14 1204 15 6 242 35 321 41 28 2 154 2 280 1 184 -3 248 -7 320 -23z"/>
<path d="M1512 3540 c-40 -4 -84 -11 -97 -14 l-25 -6 0 -445 0 -445 194 0
c227 0 316 14 423 64 179 85 274 270 244 475 -37 243 -213 366 -541 376 -69 2
-158 0 -198 -5z"/>
<path d="M3281 3528 c-239 -34 -378 -157 -412 -366 -33 -199 66 -389 247 -474
100 -47 176 -58 407 -58 l207 0 0 439 c0 422 -1 440 -19 446 -73 23 -311 30
-430 13z"/>
<path d="M2546 2945 c-11 -57 -82 -187 -136 -247 -58 -65 -160 -137 -240 -168
-30 -12 -56 -23 -58 -25 -1 -1 23 -15 55 -31 112 -54 209 -178 266 -339 13
-38 46 -163 72 -277 27 -115 52 -208 55 -208 3 0 28 93 55 208 59 255 93 353
158 449 50 75 129 145 196 172 17 8 31 16 31 20 -1 3 -42 26 -92 50 -76 36
-106 57 -173 125 -84 84 -146 188 -160 269 -9 46 -21 48 -29 2z"/>
</g>
</svg>
